<mxfile host="app.diagrams.net" agent="Mozilla/5.0 (Windows NT 10.0; Win64; x64) AppleWebKit/537.36 (KHTML, like Gecko) Chrome/130.0.0.0 Safari/537.36" version="24.7.17">
  <diagram name="Страница — 1" id="pCw0Gy0DAV7SlxU7coqn">
    <mxGraphModel dx="2901" dy="746" grid="1" gridSize="10" guides="1" tooltips="1" connect="1" arrows="1" fold="1" page="1" pageScale="1" pageWidth="827" pageHeight="1169" math="0" shadow="0">
      <root>
        <mxCell id="0" />
        <mxCell id="1" parent="0" />
        <mxCell id="jncAgMY1LAUrEOKVHQKW-10" style="rounded=0;orthogonalLoop=1;jettySize=auto;html=1;exitX=0.5;exitY=0.5;exitDx=0;exitDy=0;exitPerimeter=0;endArrow=none;endFill=0;strokeColor=default;" parent="1" source="jncAgMY1LAUrEOKVHQKW-4" target="jncAgMY1LAUrEOKVHQKW-8" edge="1">
          <mxGeometry relative="1" as="geometry" />
        </mxCell>
        <mxCell id="jncAgMY1LAUrEOKVHQKW-14" style="rounded=0;orthogonalLoop=1;jettySize=auto;html=1;exitX=0.5;exitY=0.5;exitDx=0;exitDy=0;exitPerimeter=0;endArrow=none;endFill=0;" parent="1" source="jncAgMY1LAUrEOKVHQKW-4" target="jncAgMY1LAUrEOKVHQKW-13" edge="1">
          <mxGeometry relative="1" as="geometry" />
        </mxCell>
        <mxCell id="jncAgMY1LAUrEOKVHQKW-4" value="Руководитель организации" style="shape=umlActor;verticalLabelPosition=bottom;verticalAlign=top;html=1;" parent="1" vertex="1">
          <mxGeometry x="-240" y="375" width="30" height="60" as="geometry" />
        </mxCell>
        <mxCell id="jncAgMY1LAUrEOKVHQKW-9" style="rounded=0;orthogonalLoop=1;jettySize=auto;html=1;exitX=0.5;exitY=0.5;exitDx=0;exitDy=0;exitPerimeter=0;endArrow=none;endFill=0;" parent="1" source="jncAgMY1LAUrEOKVHQKW-5" target="jncAgMY1LAUrEOKVHQKW-8" edge="1">
          <mxGeometry relative="1" as="geometry" />
        </mxCell>
        <mxCell id="jncAgMY1LAUrEOKVHQKW-15" style="rounded=0;orthogonalLoop=1;jettySize=auto;html=1;exitX=0.5;exitY=0.5;exitDx=0;exitDy=0;exitPerimeter=0;endArrow=none;endFill=0;" parent="1" source="jncAgMY1LAUrEOKVHQKW-5" target="jncAgMY1LAUrEOKVHQKW-13" edge="1">
          <mxGeometry relative="1" as="geometry" />
        </mxCell>
        <mxCell id="jncAgMY1LAUrEOKVHQKW-5" value="Пользователь" style="shape=umlActor;verticalLabelPosition=bottom;verticalAlign=top;html=1;" parent="1" vertex="1">
          <mxGeometry x="650" y="120" width="30" height="60" as="geometry" />
        </mxCell>
        <mxCell id="jncAgMY1LAUrEOKVHQKW-8" value="Авторизоваться как пользователь" style="ellipse;whiteSpace=wrap;html=1;" parent="1" vertex="1">
          <mxGeometry x="270" y="180" width="110" height="50" as="geometry" />
        </mxCell>
        <mxCell id="jncAgMY1LAUrEOKVHQKW-11" value="Ввести логин" style="ellipse;whiteSpace=wrap;html=1;" parent="1" vertex="1">
          <mxGeometry x="20" y="50" width="120" height="50" as="geometry" />
        </mxCell>
        <mxCell id="jncAgMY1LAUrEOKVHQKW-12" value="Ввести пароль" style="ellipse;whiteSpace=wrap;html=1;" parent="1" vertex="1">
          <mxGeometry x="320" y="60" width="110" height="50" as="geometry" />
        </mxCell>
        <mxCell id="jncAgMY1LAUrEOKVHQKW-13" value="Зарегистрироваться как пользователь" style="ellipse;whiteSpace=wrap;html=1;" parent="1" vertex="1">
          <mxGeometry x="110" y="160" width="115" height="50" as="geometry" />
        </mxCell>
        <mxCell id="jncAgMY1LAUrEOKVHQKW-20" style="rounded=0;orthogonalLoop=1;jettySize=auto;html=1;dashed=1;endArrow=open;endFill=0;" parent="1" source="jncAgMY1LAUrEOKVHQKW-13" target="jncAgMY1LAUrEOKVHQKW-11" edge="1">
          <mxGeometry relative="1" as="geometry">
            <mxPoint x="85" y="110" as="sourcePoint" />
            <mxPoint x="185" y="25" as="targetPoint" />
          </mxGeometry>
        </mxCell>
        <mxCell id="jncAgMY1LAUrEOKVHQKW-21" value="&amp;lt;&amp;lt;include&amp;gt;&amp;gt;" style="edgeLabel;html=1;align=center;verticalAlign=middle;resizable=0;points=[];" parent="jncAgMY1LAUrEOKVHQKW-20" vertex="1" connectable="0">
          <mxGeometry x="0.1278" relative="1" as="geometry">
            <mxPoint as="offset" />
          </mxGeometry>
        </mxCell>
        <mxCell id="jncAgMY1LAUrEOKVHQKW-22" style="rounded=0;orthogonalLoop=1;jettySize=auto;html=1;dashed=1;endArrow=open;endFill=0;" parent="1" source="jncAgMY1LAUrEOKVHQKW-13" target="jncAgMY1LAUrEOKVHQKW-12" edge="1">
          <mxGeometry relative="1" as="geometry">
            <mxPoint x="95" y="120" as="sourcePoint" />
            <mxPoint x="195" y="35" as="targetPoint" />
          </mxGeometry>
        </mxCell>
        <mxCell id="jncAgMY1LAUrEOKVHQKW-23" value="&amp;lt;&amp;lt;include&amp;gt;&amp;gt;" style="edgeLabel;html=1;align=center;verticalAlign=middle;resizable=0;points=[];" parent="jncAgMY1LAUrEOKVHQKW-22" vertex="1" connectable="0">
          <mxGeometry x="0.1278" relative="1" as="geometry">
            <mxPoint as="offset" />
          </mxGeometry>
        </mxCell>
        <mxCell id="jncAgMY1LAUrEOKVHQKW-24" style="rounded=0;orthogonalLoop=1;jettySize=auto;html=1;dashed=1;endArrow=open;endFill=0;" parent="1" source="jncAgMY1LAUrEOKVHQKW-8" target="jncAgMY1LAUrEOKVHQKW-12" edge="1">
          <mxGeometry relative="1" as="geometry">
            <mxPoint x="212" y="192" as="sourcePoint" />
            <mxPoint x="357" y="56" as="targetPoint" />
          </mxGeometry>
        </mxCell>
        <mxCell id="jncAgMY1LAUrEOKVHQKW-25" value="&amp;lt;&amp;lt;include&amp;gt;&amp;gt;" style="edgeLabel;html=1;align=center;verticalAlign=middle;resizable=0;points=[];" parent="jncAgMY1LAUrEOKVHQKW-24" vertex="1" connectable="0">
          <mxGeometry x="0.1278" relative="1" as="geometry">
            <mxPoint as="offset" />
          </mxGeometry>
        </mxCell>
        <mxCell id="jncAgMY1LAUrEOKVHQKW-26" style="rounded=0;orthogonalLoop=1;jettySize=auto;html=1;dashed=1;endArrow=open;endFill=0;" parent="1" source="jncAgMY1LAUrEOKVHQKW-8" target="jncAgMY1LAUrEOKVHQKW-11" edge="1">
          <mxGeometry relative="1" as="geometry">
            <mxPoint x="222" y="202" as="sourcePoint" />
            <mxPoint x="367" y="66" as="targetPoint" />
          </mxGeometry>
        </mxCell>
        <mxCell id="jncAgMY1LAUrEOKVHQKW-27" value="&amp;lt;&amp;lt;include&amp;gt;&amp;gt;" style="edgeLabel;html=1;align=center;verticalAlign=middle;resizable=0;points=[];" parent="jncAgMY1LAUrEOKVHQKW-26" vertex="1" connectable="0">
          <mxGeometry x="0.1278" relative="1" as="geometry">
            <mxPoint as="offset" />
          </mxGeometry>
        </mxCell>
        <mxCell id="jncAgMY1LAUrEOKVHQKW-36" value="Создать организацию" style="ellipse;whiteSpace=wrap;html=1;" parent="1" vertex="1">
          <mxGeometry x="190" y="250" width="100" height="50" as="geometry" />
        </mxCell>
        <mxCell id="jncAgMY1LAUrEOKVHQKW-37" style="rounded=0;orthogonalLoop=1;jettySize=auto;html=1;exitX=0.5;exitY=0.5;exitDx=0;exitDy=0;exitPerimeter=0;endArrow=none;endFill=0;" parent="1" source="jncAgMY1LAUrEOKVHQKW-4" target="jncAgMY1LAUrEOKVHQKW-36" edge="1">
          <mxGeometry relative="1" as="geometry">
            <mxPoint x="-155" y="240" as="sourcePoint" />
            <mxPoint x="74" y="191" as="targetPoint" />
          </mxGeometry>
        </mxCell>
        <mxCell id="jncAgMY1LAUrEOKVHQKW-38" style="rounded=0;orthogonalLoop=1;jettySize=auto;html=1;exitX=0.5;exitY=0.5;exitDx=0;exitDy=0;exitPerimeter=0;endArrow=none;endFill=0;" parent="1" source="jncAgMY1LAUrEOKVHQKW-5" target="jncAgMY1LAUrEOKVHQKW-36" edge="1">
          <mxGeometry relative="1" as="geometry">
            <mxPoint x="-145" y="250" as="sourcePoint" />
            <mxPoint x="84" y="201" as="targetPoint" />
          </mxGeometry>
        </mxCell>
        <mxCell id="jncAgMY1LAUrEOKVHQKW-39" value="Создать групповую задачу" style="ellipse;whiteSpace=wrap;html=1;" parent="1" vertex="1">
          <mxGeometry x="-40" y="430" width="110" height="50" as="geometry" />
        </mxCell>
        <mxCell id="jncAgMY1LAUrEOKVHQKW-41" style="rounded=0;orthogonalLoop=1;jettySize=auto;html=1;exitX=0.5;exitY=0.5;exitDx=0;exitDy=0;exitPerimeter=0;endArrow=none;endFill=0;" parent="1" source="jncAgMY1LAUrEOKVHQKW-4" target="jncAgMY1LAUrEOKVHQKW-39" edge="1">
          <mxGeometry relative="1" as="geometry">
            <mxPoint x="-135" y="260" as="sourcePoint" />
            <mxPoint x="94" y="211" as="targetPoint" />
          </mxGeometry>
        </mxCell>
        <mxCell id="jncAgMY1LAUrEOKVHQKW-43" value="Ввести дополнительные данные" style="ellipse;whiteSpace=wrap;html=1;" parent="1" vertex="1">
          <mxGeometry x="170" y="20" width="110" height="50" as="geometry" />
        </mxCell>
        <mxCell id="jncAgMY1LAUrEOKVHQKW-44" style="rounded=0;orthogonalLoop=1;jettySize=auto;html=1;dashed=1;endArrow=open;endFill=0;" parent="1" source="jncAgMY1LAUrEOKVHQKW-13" target="jncAgMY1LAUrEOKVHQKW-43" edge="1">
          <mxGeometry relative="1" as="geometry">
            <mxPoint x="243" y="165" as="sourcePoint" />
            <mxPoint x="422" y="55" as="targetPoint" />
          </mxGeometry>
        </mxCell>
        <mxCell id="jncAgMY1LAUrEOKVHQKW-45" value="&amp;lt;&amp;lt;include&amp;gt;&amp;gt;" style="edgeLabel;html=1;align=center;verticalAlign=middle;resizable=0;points=[];" parent="jncAgMY1LAUrEOKVHQKW-44" vertex="1" connectable="0">
          <mxGeometry x="0.1278" relative="1" as="geometry">
            <mxPoint as="offset" />
          </mxGeometry>
        </mxCell>
        <mxCell id="jncAgMY1LAUrEOKVHQKW-47" value="Просмотр" style="ellipse;whiteSpace=wrap;html=1;" parent="1" vertex="1">
          <mxGeometry x="200" y="310" width="106" height="50" as="geometry" />
        </mxCell>
        <mxCell id="jncAgMY1LAUrEOKVHQKW-49" style="rounded=0;orthogonalLoop=1;jettySize=auto;html=1;endArrow=none;endFill=0;entryX=0.5;entryY=0.5;entryDx=0;entryDy=0;entryPerimeter=0;" parent="1" source="jncAgMY1LAUrEOKVHQKW-47" target="jncAgMY1LAUrEOKVHQKW-5" edge="1">
          <mxGeometry relative="1" as="geometry">
            <mxPoint x="284" y="384" as="sourcePoint" />
            <mxPoint x="575" y="170" as="targetPoint" />
          </mxGeometry>
        </mxCell>
        <mxCell id="jncAgMY1LAUrEOKVHQKW-50" style="rounded=0;orthogonalLoop=1;jettySize=auto;html=1;endArrow=none;endFill=0;exitX=0.5;exitY=0.5;exitDx=0;exitDy=0;exitPerimeter=0;" parent="1" source="jncAgMY1LAUrEOKVHQKW-4" target="jncAgMY1LAUrEOKVHQKW-47" edge="1">
          <mxGeometry relative="1" as="geometry">
            <mxPoint x="294" y="394" as="sourcePoint" />
            <mxPoint x="585" y="180" as="targetPoint" />
          </mxGeometry>
        </mxCell>
        <mxCell id="jncAgMY1LAUrEOKVHQKW-52" value="Ввести данные задачи" style="ellipse;whiteSpace=wrap;html=1;" parent="1" vertex="1">
          <mxGeometry x="160" y="420" width="110" height="50" as="geometry" />
        </mxCell>
        <mxCell id="jncAgMY1LAUrEOKVHQKW-55" style="rounded=0;orthogonalLoop=1;jettySize=auto;html=1;dashed=1;endArrow=open;endFill=0;" parent="1" source="jncAgMY1LAUrEOKVHQKW-39" target="jncAgMY1LAUrEOKVHQKW-52" edge="1">
          <mxGeometry relative="1" as="geometry">
            <mxPoint x="106" y="454" as="sourcePoint" />
            <mxPoint x="159" y="30" as="targetPoint" />
          </mxGeometry>
        </mxCell>
        <mxCell id="jncAgMY1LAUrEOKVHQKW-56" value="&amp;lt;&amp;lt;include&amp;gt;&amp;gt;" style="edgeLabel;html=1;align=center;verticalAlign=middle;resizable=0;points=[];" parent="jncAgMY1LAUrEOKVHQKW-55" vertex="1" connectable="0">
          <mxGeometry x="0.1278" relative="1" as="geometry">
            <mxPoint as="offset" />
          </mxGeometry>
        </mxCell>
        <mxCell id="jncAgMY1LAUrEOKVHQKW-57" value="Редактировать задачу" style="ellipse;whiteSpace=wrap;html=1;" parent="1" vertex="1">
          <mxGeometry x="210" y="600" width="115" height="50" as="geometry" />
        </mxCell>
        <mxCell id="jncAgMY1LAUrEOKVHQKW-58" value="Удалить задачу" style="ellipse;whiteSpace=wrap;html=1;" parent="1" vertex="1">
          <mxGeometry x="250" y="470" width="100" height="50" as="geometry" />
        </mxCell>
        <mxCell id="jncAgMY1LAUrEOKVHQKW-59" style="rounded=0;orthogonalLoop=1;jettySize=auto;html=1;dashed=1;endArrow=open;endFill=0;" parent="1" source="jncAgMY1LAUrEOKVHQKW-58" target="jncAgMY1LAUrEOKVHQKW-57" edge="1">
          <mxGeometry relative="1" as="geometry">
            <mxPoint x="142" y="490" as="sourcePoint" />
            <mxPoint x="231" y="520" as="targetPoint" />
          </mxGeometry>
        </mxCell>
        <mxCell id="jncAgMY1LAUrEOKVHQKW-60" value="&amp;lt;&amp;lt;extend&amp;gt;&amp;gt;" style="edgeLabel;html=1;align=center;verticalAlign=middle;resizable=0;points=[];" parent="jncAgMY1LAUrEOKVHQKW-59" vertex="1" connectable="0">
          <mxGeometry x="0.1278" relative="1" as="geometry">
            <mxPoint as="offset" />
          </mxGeometry>
        </mxCell>
        <mxCell id="jncAgMY1LAUrEOKVHQKW-61" style="rounded=0;orthogonalLoop=1;jettySize=auto;html=1;endArrow=none;endFill=0;entryX=0.5;entryY=0.5;entryDx=0;entryDy=0;entryPerimeter=0;" parent="1" source="jncAgMY1LAUrEOKVHQKW-57" target="jncAgMY1LAUrEOKVHQKW-5" edge="1">
          <mxGeometry relative="1" as="geometry">
            <mxPoint x="389" y="423" as="sourcePoint" />
            <mxPoint x="675" y="160" as="targetPoint" />
          </mxGeometry>
        </mxCell>
        <mxCell id="jncAgMY1LAUrEOKVHQKW-62" style="rounded=0;orthogonalLoop=1;jettySize=auto;html=1;endArrow=none;endFill=0;entryX=0.5;entryY=0.5;entryDx=0;entryDy=0;entryPerimeter=0;" parent="1" source="jncAgMY1LAUrEOKVHQKW-57" target="jncAgMY1LAUrEOKVHQKW-4" edge="1">
          <mxGeometry relative="1" as="geometry">
            <mxPoint x="399" y="433" as="sourcePoint" />
            <mxPoint x="685" y="170" as="targetPoint" />
          </mxGeometry>
        </mxCell>
        <mxCell id="jncAgMY1LAUrEOKVHQKW-66" value="Писать комментарии к задаче" style="ellipse;whiteSpace=wrap;html=1;" parent="1" vertex="1">
          <mxGeometry x="240" y="690" width="110" height="50" as="geometry" />
        </mxCell>
        <mxCell id="jncAgMY1LAUrEOKVHQKW-67" style="rounded=0;orthogonalLoop=1;jettySize=auto;html=1;endArrow=none;endFill=0;entryX=0.5;entryY=0.5;entryDx=0;entryDy=0;entryPerimeter=0;" parent="1" source="jncAgMY1LAUrEOKVHQKW-66" target="jncAgMY1LAUrEOKVHQKW-4" edge="1">
          <mxGeometry relative="1" as="geometry">
            <mxPoint x="246" y="588" as="sourcePoint" />
            <mxPoint x="-175" y="410" as="targetPoint" />
          </mxGeometry>
        </mxCell>
        <mxCell id="jncAgMY1LAUrEOKVHQKW-68" style="rounded=0;orthogonalLoop=1;jettySize=auto;html=1;endArrow=none;endFill=0;entryX=0.5;entryY=0.5;entryDx=0;entryDy=0;entryPerimeter=0;" parent="1" source="jncAgMY1LAUrEOKVHQKW-66" target="jncAgMY1LAUrEOKVHQKW-5" edge="1">
          <mxGeometry relative="1" as="geometry">
            <mxPoint x="256" y="598" as="sourcePoint" />
            <mxPoint x="-165" y="420" as="targetPoint" />
          </mxGeometry>
        </mxCell>
        <mxCell id="jncAgMY1LAUrEOKVHQKW-69" value="Исключить пользователя из организации/проекта" style="ellipse;whiteSpace=wrap;html=1;" parent="1" vertex="1">
          <mxGeometry x="-280" y="570" width="105" height="60" as="geometry" />
        </mxCell>
        <mxCell id="jncAgMY1LAUrEOKVHQKW-71" value="Редактировать организацию/проект" style="ellipse;whiteSpace=wrap;html=1;" parent="1" vertex="1">
          <mxGeometry x="-100" y="550" width="100" height="50" as="geometry" />
        </mxCell>
        <mxCell id="jncAgMY1LAUrEOKVHQKW-72" style="rounded=0;orthogonalLoop=1;jettySize=auto;html=1;endArrow=none;endFill=0;entryX=0.5;entryY=0.5;entryDx=0;entryDy=0;entryPerimeter=0;" parent="1" source="jncAgMY1LAUrEOKVHQKW-71" target="jncAgMY1LAUrEOKVHQKW-4" edge="1">
          <mxGeometry relative="1" as="geometry">
            <mxPoint x="-273" y="507" as="sourcePoint" />
            <mxPoint x="-215" y="415" as="targetPoint" />
          </mxGeometry>
        </mxCell>
        <mxCell id="jncAgMY1LAUrEOKVHQKW-73" value="Изменить данные" style="ellipse;whiteSpace=wrap;html=1;" parent="1" vertex="1">
          <mxGeometry x="-160" y="660" width="100" height="50" as="geometry" />
        </mxCell>
        <mxCell id="jncAgMY1LAUrEOKVHQKW-74" value="Удалить организацию/проект" style="ellipse;whiteSpace=wrap;html=1;" parent="1" vertex="1">
          <mxGeometry y="650" width="100" height="50" as="geometry" />
        </mxCell>
        <mxCell id="jncAgMY1LAUrEOKVHQKW-75" style="rounded=0;orthogonalLoop=1;jettySize=auto;html=1;dashed=1;endArrow=open;endFill=0;" parent="1" source="jncAgMY1LAUrEOKVHQKW-69" target="jncAgMY1LAUrEOKVHQKW-71" edge="1">
          <mxGeometry relative="1" as="geometry">
            <mxPoint x="166" y="700" as="sourcePoint" />
            <mxPoint x="90" y="735" as="targetPoint" />
          </mxGeometry>
        </mxCell>
        <mxCell id="jncAgMY1LAUrEOKVHQKW-76" value="&amp;lt;&amp;lt;extend&amp;gt;&amp;gt;" style="edgeLabel;html=1;align=center;verticalAlign=middle;resizable=0;points=[];" parent="jncAgMY1LAUrEOKVHQKW-75" vertex="1" connectable="0">
          <mxGeometry x="0.1278" relative="1" as="geometry">
            <mxPoint as="offset" />
          </mxGeometry>
        </mxCell>
        <mxCell id="jncAgMY1LAUrEOKVHQKW-77" style="rounded=0;orthogonalLoop=1;jettySize=auto;html=1;dashed=1;endArrow=open;endFill=0;" parent="1" source="jncAgMY1LAUrEOKVHQKW-74" target="jncAgMY1LAUrEOKVHQKW-71" edge="1">
          <mxGeometry relative="1" as="geometry">
            <mxPoint x="36" y="720" as="sourcePoint" />
            <mxPoint x="-40" y="755" as="targetPoint" />
          </mxGeometry>
        </mxCell>
        <mxCell id="jncAgMY1LAUrEOKVHQKW-78" value="&amp;lt;&amp;lt;extend&amp;gt;&amp;gt;" style="edgeLabel;html=1;align=center;verticalAlign=middle;resizable=0;points=[];" parent="jncAgMY1LAUrEOKVHQKW-77" vertex="1" connectable="0">
          <mxGeometry x="0.1278" relative="1" as="geometry">
            <mxPoint as="offset" />
          </mxGeometry>
        </mxCell>
        <mxCell id="jncAgMY1LAUrEOKVHQKW-79" style="rounded=0;orthogonalLoop=1;jettySize=auto;html=1;dashed=1;endArrow=open;endFill=0;" parent="1" source="jncAgMY1LAUrEOKVHQKW-73" target="jncAgMY1LAUrEOKVHQKW-71" edge="1">
          <mxGeometry relative="1" as="geometry">
            <mxPoint x="-134" y="750" as="sourcePoint" />
            <mxPoint x="-210" y="785" as="targetPoint" />
          </mxGeometry>
        </mxCell>
        <mxCell id="jncAgMY1LAUrEOKVHQKW-80" value="&amp;lt;&amp;lt;extend&amp;gt;&amp;gt;" style="edgeLabel;html=1;align=center;verticalAlign=middle;resizable=0;points=[];" parent="jncAgMY1LAUrEOKVHQKW-79" vertex="1" connectable="0">
          <mxGeometry x="0.1278" relative="1" as="geometry">
            <mxPoint as="offset" />
          </mxGeometry>
        </mxCell>
        <mxCell id="jncAgMY1LAUrEOKVHQKW-81" value="Назначить пользователю" style="ellipse;whiteSpace=wrap;html=1;" parent="1" vertex="1">
          <mxGeometry x="70" y="490" width="110" height="50" as="geometry" />
        </mxCell>
        <mxCell id="jncAgMY1LAUrEOKVHQKW-82" style="rounded=0;orthogonalLoop=1;jettySize=auto;html=1;dashed=1;endArrow=open;endFill=0;" parent="1" source="jncAgMY1LAUrEOKVHQKW-39" target="jncAgMY1LAUrEOKVHQKW-81" edge="1">
          <mxGeometry relative="1" as="geometry">
            <mxPoint x="116" y="464" as="sourcePoint" />
            <mxPoint x="187" y="476" as="targetPoint" />
          </mxGeometry>
        </mxCell>
        <mxCell id="jncAgMY1LAUrEOKVHQKW-83" value="&amp;lt;&amp;lt;include&amp;gt;&amp;gt;" style="edgeLabel;html=1;align=center;verticalAlign=middle;resizable=0;points=[];" parent="jncAgMY1LAUrEOKVHQKW-82" vertex="1" connectable="0">
          <mxGeometry x="0.1278" relative="1" as="geometry">
            <mxPoint as="offset" />
          </mxGeometry>
        </mxCell>
        <mxCell id="8q16P8ETdKa8oNsXDbby-1" style="rounded=0;orthogonalLoop=1;jettySize=auto;html=1;dashed=1;endArrow=open;endFill=0;" parent="1" source="jncAgMY1LAUrEOKVHQKW-81" target="jncAgMY1LAUrEOKVHQKW-57" edge="1">
          <mxGeometry relative="1" as="geometry">
            <mxPoint x="339" y="533" as="sourcePoint" />
            <mxPoint x="243" y="585" as="targetPoint" />
          </mxGeometry>
        </mxCell>
        <mxCell id="8q16P8ETdKa8oNsXDbby-2" value="&amp;lt;&amp;lt;extend&amp;gt;&amp;gt;" style="edgeLabel;html=1;align=center;verticalAlign=middle;resizable=0;points=[];" parent="8q16P8ETdKa8oNsXDbby-1" vertex="1" connectable="0">
          <mxGeometry x="0.1278" relative="1" as="geometry">
            <mxPoint as="offset" />
          </mxGeometry>
        </mxCell>
        <mxCell id="8q16P8ETdKa8oNsXDbby-3" value="Список пользователей" style="ellipse;whiteSpace=wrap;html=1;" parent="1" vertex="1">
          <mxGeometry x="60" y="375" width="100" height="50" as="geometry" />
        </mxCell>
        <mxCell id="8q16P8ETdKa8oNsXDbby-4" value="Группы,&amp;nbsp;&lt;span style=&quot;background-color: initial;&quot;&gt;проектов, задач&lt;/span&gt;" style="ellipse;whiteSpace=wrap;html=1;" parent="1" vertex="1">
          <mxGeometry x="294" y="380" width="120" height="55" as="geometry" />
        </mxCell>
        <mxCell id="8q16P8ETdKa8oNsXDbby-5" style="rounded=0;orthogonalLoop=1;jettySize=auto;html=1;dashed=1;endArrow=open;endFill=0;" parent="1" source="8q16P8ETdKa8oNsXDbby-4" target="jncAgMY1LAUrEOKVHQKW-47" edge="1">
          <mxGeometry relative="1" as="geometry">
            <mxPoint x="296" y="540" as="sourcePoint" />
            <mxPoint x="282" y="610" as="targetPoint" />
          </mxGeometry>
        </mxCell>
        <mxCell id="8q16P8ETdKa8oNsXDbby-6" value="&amp;lt;&amp;lt;extend&amp;gt;&amp;gt;" style="edgeLabel;html=1;align=center;verticalAlign=middle;resizable=0;points=[];" parent="8q16P8ETdKa8oNsXDbby-5" vertex="1" connectable="0">
          <mxGeometry x="0.1278" relative="1" as="geometry">
            <mxPoint as="offset" />
          </mxGeometry>
        </mxCell>
        <mxCell id="8q16P8ETdKa8oNsXDbby-7" style="rounded=0;orthogonalLoop=1;jettySize=auto;html=1;dashed=1;endArrow=open;endFill=0;" parent="1" source="8q16P8ETdKa8oNsXDbby-3" target="jncAgMY1LAUrEOKVHQKW-47" edge="1">
          <mxGeometry relative="1" as="geometry">
            <mxPoint x="306" y="550" as="sourcePoint" />
            <mxPoint x="292" y="620" as="targetPoint" />
          </mxGeometry>
        </mxCell>
        <mxCell id="8q16P8ETdKa8oNsXDbby-8" value="&amp;lt;&amp;lt;extend&amp;gt;&amp;gt;" style="edgeLabel;html=1;align=center;verticalAlign=middle;resizable=0;points=[];" parent="8q16P8ETdKa8oNsXDbby-7" vertex="1" connectable="0">
          <mxGeometry x="0.1278" relative="1" as="geometry">
            <mxPoint as="offset" />
          </mxGeometry>
        </mxCell>
        <mxCell id="4D-jVmmyUW2b7siiEwy5-1" value="Создать проект" style="ellipse;whiteSpace=wrap;html=1;" vertex="1" parent="1">
          <mxGeometry x="-140" y="240" width="90" height="55" as="geometry" />
        </mxCell>
        <mxCell id="4D-jVmmyUW2b7siiEwy5-2" style="rounded=0;orthogonalLoop=1;jettySize=auto;html=1;exitX=0.5;exitY=0.5;exitDx=0;exitDy=0;exitPerimeter=0;endArrow=none;endFill=0;" edge="1" parent="1" source="jncAgMY1LAUrEOKVHQKW-4" target="4D-jVmmyUW2b7siiEwy5-1">
          <mxGeometry relative="1" as="geometry">
            <mxPoint x="-215" y="415" as="sourcePoint" />
            <mxPoint x="-15" y="237" as="targetPoint" />
          </mxGeometry>
        </mxCell>
        <mxCell id="4D-jVmmyUW2b7siiEwy5-3" value="Назначить пользователя руководителем" style="ellipse;whiteSpace=wrap;html=1;" vertex="1" parent="1">
          <mxGeometry x="-50" y="130" width="110" height="65" as="geometry" />
        </mxCell>
        <mxCell id="4D-jVmmyUW2b7siiEwy5-4" style="rounded=0;orthogonalLoop=1;jettySize=auto;html=1;dashed=1;endArrow=open;endFill=0;" edge="1" parent="1" source="4D-jVmmyUW2b7siiEwy5-1" target="4D-jVmmyUW2b7siiEwy5-3">
          <mxGeometry relative="1" as="geometry">
            <mxPoint x="-350" y="120" as="sourcePoint" />
            <mxPoint x="-260" y="116" as="targetPoint" />
          </mxGeometry>
        </mxCell>
        <mxCell id="4D-jVmmyUW2b7siiEwy5-5" value="&amp;lt;&amp;lt;include&amp;gt;&amp;gt;" style="edgeLabel;html=1;align=center;verticalAlign=middle;resizable=0;points=[];" vertex="1" connectable="0" parent="4D-jVmmyUW2b7siiEwy5-4">
          <mxGeometry x="0.1278" relative="1" as="geometry">
            <mxPoint as="offset" />
          </mxGeometry>
        </mxCell>
        <mxCell id="4D-jVmmyUW2b7siiEwy5-6" style="rounded=0;orthogonalLoop=1;jettySize=auto;html=1;dashed=1;endArrow=open;endFill=0;" edge="1" parent="1" source="jncAgMY1LAUrEOKVHQKW-52" target="jncAgMY1LAUrEOKVHQKW-57">
          <mxGeometry relative="1" as="geometry">
            <mxPoint x="304" y="530" as="sourcePoint" />
            <mxPoint x="284" y="610" as="targetPoint" />
          </mxGeometry>
        </mxCell>
        <mxCell id="4D-jVmmyUW2b7siiEwy5-7" value="&amp;lt;&amp;lt;extend&amp;gt;&amp;gt;" style="edgeLabel;html=1;align=center;verticalAlign=middle;resizable=0;points=[];" vertex="1" connectable="0" parent="4D-jVmmyUW2b7siiEwy5-6">
          <mxGeometry x="0.1278" relative="1" as="geometry">
            <mxPoint as="offset" />
          </mxGeometry>
        </mxCell>
      </root>
    </mxGraphModel>
  </diagram>
</mxfile>
